<svg id="Layer_1" data-name="Layer 1" xmlns="http://www.w3.org/2000/svg" viewBox="0 0 1918.65 1080.43"><defs><style>.cls-1{fill:#a0d3f0;}.cls-2{fill:#8dc6db;}.cls-3{fill:#4367c6;opacity:0.15;}.cls-4{fill:#cc206b;}.cls-5{fill:#ff65a6;}.cls-6{fill:none;}.cls-7{fill:#0e1827;}.cls-8{fill:#334151;}.cls-9{fill:#070c14;}.cls-10{fill:#c2cedc;}.cls-11{fill:#ff8e01;}.cls-12{fill:#ffdd38;}.cls-13{fill:#ffc300;}.cls-14{fill:#592bc1;}.cls-15{fill:#ffab3e;}.cls-16{fill:#714ce4;}.cls-17{fill:#f90;}.cls-18{fill:#ed428b;}.cls-19{fill:#61a0ef;}.cls-20{fill:#8dc1fd;}.cls-21{fill:#93a5e8;}.cls-22{fill:#cfd4da;}.cls-23{fill:#e3f0f8;}.cls-24{fill:#fff;}.cls-25{fill:#1e3049;}</style></defs><title>draft1 - percentage calculator</title><rect class="cls-1" x="2.58" width="1916.07" height="1079.97"/><path class="cls-2" d="M1049.07,0S988,217.25,520.62,186.9,7.36,487.36,4.36,610.71L1.35,0Z" transform="translate(-1.35)"/><path class="cls-2" d="M1.35,1018.64s132.84-247.85,702.14-177S1055.84,204.76,1920,297.2l-.62,783.23H1.35Z" transform="translate(-1.35)"/><path class="cls-3" d="M1241.45,503.32l238.79,137.87c2.8,1.61,2.82,4.22,0,5.83l-21.84,12.6a11.13,11.13,0,0,1-10.1,0L1209.55,521.74c-2.8-1.62-2.82-4.23,0-5.83l21.84-12.61A11.13,11.13,0,0,1,1241.45,503.32Z" transform="translate(-1.35)"/><polygon class="cls-4" points="1238.88 295.58 1172.47 236.46 1155.32 246.43 1221.73 305.55 1238.88 295.58"/><polygon class="cls-4" points="1362.64 419.13 1280.14 409.68 1220.53 305.92 1203.38 315.87 1262.99 419.65 1345.49 429.09 1458.47 624.72 1475.62 614.76 1362.64 419.13"/><polygon class="cls-5" points="1262.99 419.65 1203.38 315.87 1221.73 305.55 1155.32 246.43 1172.7 333.14 1191.06 322.77 1258.73 440.52 1341.31 450.02 1446.19 631.72 1458.47 624.72 1345.49 429.09 1262.99 419.65"/><path class="cls-3" d="M605.92,758.09l.68.41,397.83,229.69c7,4.06,18.46,4,25.54-.05l366.18-211.41,8.2-4.74c.26-.15.52-.31.77-.48,3.13-2,4.65-4.62,4.55-7.17s-1.84-5.13-5.23-7.09L1006.6,527.56c-7-4.06-18.45-4-25.53.05L606.69,743.76c-3.84,2.22-5.61,5.18-5.29,8.07C601.64,754.09,603.15,756.3,605.92,758.09Z" transform="translate(-1.35)"/><path class="cls-3" d="M502.45,605.88c.22.14.44.28.68.41L901,836c7,4.06,18.46,4,25.54-.05l366.17-211.41,8.2-4.74c.27-.15.53-.31.78-.47,3.13-2,4.65-4.62,4.55-7.18S1304.36,607,1301,605L903.13,375.35c-7-4.05-18.45-4-25.53.06L503.22,591.55c-3.84,2.22-5.61,5.18-5.3,8.08C498.17,601.88,499.68,604.09,502.45,605.88Z" transform="translate(-1.35)"/><polygon class="cls-6" points="1291.33 540.63 1291.33 540.63 925.15 752.04 1291.33 540.63"/><path class="cls-7" d="M1306.2,528.24c.1,2.56-1.42,5.13-4.55,7.18-.25.16-.51.32-.78.47l-8.2,4.74h0L926.5,752c-7.08,4.08-18.51,4.11-25.54.05L503.13,522.4c-.24-.13-.46-.27-.68-.41-2.77-1.79-4.28-4-4.53-6.26h0v13.61h0c.17,2.51,1.91,5,5.22,6.9L901,765.94c7,4.06,18.46,4,25.54-.05l374.37-216.15c3.22-1.86,5-4.23,5.29-6.66h0V528.24Z" transform="translate(-1.35)"/><path class="cls-8" d="M502.45,522c.22.14.44.28.68.41L901,752.09c7,4.06,18.46,4,25.54-.05l366.17-211.41,8.2-4.74c.27-.15.53-.31.78-.47,3.13-2,4.65-4.62,4.55-7.18s-1.84-5.13-5.23-7.09L903.13,291.46c-7-4.06-18.45-4-25.53.05L503.22,507.66c-3.84,2.22-5.61,5.18-5.3,8.07C498.17,518,499.68,520.2,502.45,522Z" transform="translate(-1.35)"/><polygon class="cls-6" points="1395.77 695.8 1395.77 695.8 1029.59 907.21 1395.77 695.8"/><path class="cls-9" d="M1410.64,683.41c.1,2.56-1.42,5.13-4.55,7.18l-.78.48-8.2,4.73h0L1030.94,907.21c-7.08,4.09-18.51,4.11-25.54.06L607.57,677.58l-.68-.42c-2.77-1.79-4.28-4-4.53-6.25h0v13.61h0c.17,2.52,1.91,5,5.22,6.91L1005.4,921.11c7,4.06,18.46,4,25.54-.05l374.37-216.15c3.22-1.85,5-4.23,5.29-6.65h.05V683.42Z" transform="translate(-1.35)"/><path class="cls-7" d="M606.89,677.16l.68.42L1005.4,907.27c7,4.05,18.46,4,25.54-.06L1397.11,695.8l8.2-4.73.78-.48c3.13-2.05,4.65-4.62,4.55-7.18s-1.84-5.13-5.23-7.09L1007.57,446.63c-7-4.05-18.45-4-25.53.06L607.66,662.83c-3.84,2.22-5.61,5.18-5.3,8.08C602.61,673.16,604.12,675.37,606.89,677.16Z" transform="translate(-1.35)"/><ellipse class="cls-10" cx="613.38" cy="502.71" rx="32.93" ry="19.01" transform="matrix(1, -0.01, 0.01, 1, -4.5, 3.87)"/><path class="cls-11" d="M612.89,507.85c-17.25,0-31.23-8.15-31.23-18.19v8.68h0c0,.09,0,.17,0,.26,0,10,14,18.19,31.23,18.19s31.24-8.15,31.24-18.19c0-.09,0-.17,0-.26h0v-8.68C644.13,499.7,630.14,507.85,612.89,507.85Z" transform="translate(-1.35)"/><path class="cls-12" d="M612.89,471.47c-17.18,0-31.11,8.07-31.23,18.06v.13c0,10,14,18.19,31.23,18.19s31.24-8.15,31.24-18.19v-.13C644,479.54,630.07,471.47,612.89,471.47Z" transform="translate(-1.35)"/><ellipse class="cls-13" cx="611.54" cy="489.66" rx="23.35" ry="13.6"/><path class="cls-11" d="M612.89,477.52c12.48,0,22.63,5.7,23.29,12.87,0-.25.06-.49.06-.73,0-7.51-10.45-13.6-23.35-13.6s-23.35,6.09-23.35,13.6a6.21,6.21,0,0,0,.07.73C590.26,483.22,600.42,477.52,612.89,477.52Z" transform="translate(-1.35)"/><path class="cls-12" d="M614.7,485.39c-.58.11-1.18.24-1.81.41s-1.11.3-1.72.5-1.2.43-1.76.67l1.88,1.08.61-.22.69-.24c1.06-.37,2.07-.69,3-.94a15.57,15.57,0,0,1,2.65-.51,8.48,8.48,0,0,1,2.37.06,6.64,6.64,0,0,1,2.17.8,3.33,3.33,0,0,1,1.55,1.52,2.17,2.17,0,0,1,0,1.64,4.82,4.82,0,0,1-1.18,1.64,12.57,12.57,0,0,1-2,1.54l2.53,1.46-2.1,1.21L619,494.53a35,35,0,0,1-4.15,1.75,33.91,33.91,0,0,1-4.31,1.21l-1.36-3.33c.71-.14,1.44-.3,2.19-.5s1.34-.36,2.12-.61a18.74,18.74,0,0,0,2.21-.85l-1.83-1.06c-.66.25-1.33.48-2,.71a28.5,28.5,0,0,1-2.84.81,13.48,13.48,0,0,1-2.34.34,7,7,0,0,1-2-.15,6,6,0,0,1-1.71-.67,3.64,3.64,0,0,1-1.52-1.42,2.26,2.26,0,0,1-.21-1.61,3.88,3.88,0,0,1,.9-1.67,9.62,9.62,0,0,1,1.84-1.62l-2.1-1.21,2.09-1.22,2.13,1.23c.63-.3,1.28-.57,1.93-.82s1.3-.48,1.95-.68,1.26-.39,1.86-.55l1.65-.43Zm-7.05,3.34a1.24,1.24,0,0,0,.77.15,6,6,0,0,0,1.15-.25l-1.58-.91C607.36,488.16,607.24,488.5,607.65,488.73Zm10,1.68a1.41,1.41,0,0,0-.82-.12,7.11,7.11,0,0,0-1.23.27l1.55.89a1.74,1.74,0,0,0,.68-.64A.3.3,0,0,0,617.67,490.41Z" transform="translate(-1.35)"/><path class="cls-11" d="M614.7,484.61c-.58.11-1.18.25-1.81.41s-1.11.3-1.72.5-1.2.43-1.76.67l1.88,1.08.61-.22.69-.24c1.06-.37,2.07-.69,3-.94a17.81,17.81,0,0,1,2.65-.51,8.87,8.87,0,0,1,2.37.06,6.64,6.64,0,0,1,2.17.8,3.33,3.33,0,0,1,1.55,1.52,2.17,2.17,0,0,1,0,1.64,4.82,4.82,0,0,1-1.18,1.64,12.57,12.57,0,0,1-2,1.54l2.53,1.46-2.1,1.21L619,493.75a35,35,0,0,1-4.15,1.75,33.91,33.91,0,0,1-4.31,1.21l-1.36-3.33c.71-.14,1.44-.3,2.19-.49s1.34-.37,2.12-.61a20.7,20.7,0,0,0,2.21-.86l-1.83-1.06c-.66.25-1.33.49-2,.71a28.5,28.5,0,0,1-2.84.81,12.58,12.58,0,0,1-2.34.34,7,7,0,0,1-2-.15,6,6,0,0,1-1.71-.67A3.64,3.64,0,0,1,601.5,490a2.24,2.24,0,0,1-.21-1.6,3.86,3.86,0,0,1,.9-1.68,9.62,9.62,0,0,1,1.84-1.62l-2.1-1.21,2.09-1.21,2.13,1.22c.63-.3,1.28-.57,1.93-.82s1.3-.48,1.95-.68,1.26-.38,1.86-.54l1.65-.44ZM607.65,488a1.24,1.24,0,0,0,.77.14,5.92,5.92,0,0,0,1.15-.24l-1.58-.92C607.36,487.39,607.24,487.72,607.65,488Zm10,1.67a1.34,1.34,0,0,0-.82-.11,6.19,6.19,0,0,0-1.23.26l1.55.89a1.74,1.74,0,0,0,.68-.64A.3.3,0,0,0,617.67,489.63Z" transform="translate(-1.35)"/><path class="cls-11" d="M612.87,495.44c-17.25,0-31.24-8.15-31.24-18.19v8.68h0c0,.09,0,.17,0,.25,0,10.05,14,18.19,31.24,18.19s31.24-8.14,31.24-18.19a2.29,2.29,0,0,0,0-.25h0v-8.68C644.11,487.29,630.12,495.44,612.87,495.44Z" transform="translate(-1.35)"/><path class="cls-12" d="M612.87,459.06c-17.18,0-31.12,8.07-31.24,18.06v.13c0,10,14,18.19,31.24,18.19s31.24-8.15,31.24-18.19c0-.05,0-.09,0-.13C644,467.13,630.05,459.06,612.87,459.06Z" transform="translate(-1.35)"/><ellipse class="cls-13" cx="611.52" cy="477.25" rx="23.35" ry="13.6"/><path class="cls-11" d="M612.87,465.11c12.47,0,22.63,5.7,23.29,12.86,0-.24.06-.48.06-.72,0-7.51-10.46-13.6-23.35-13.6s-23.35,6.09-23.35,13.6c0,.24,0,.48.06.72C590.24,470.81,600.4,465.11,612.87,465.11Z" transform="translate(-1.35)"/><path class="cls-12" d="M614.67,473c-.58.1-1.18.24-1.8.41s-1.11.3-1.72.5-1.2.43-1.76.67l1.87,1.08c.19-.07.39-.15.62-.22l.68-.24c1.07-.37,2.07-.69,3-.94a15.67,15.67,0,0,1,2.66-.51,8.48,8.48,0,0,1,2.37.06,6.5,6.5,0,0,1,2.16.8,3.41,3.41,0,0,1,1.56,1.52,2.1,2.1,0,0,1,0,1.63,4.82,4.82,0,0,1-1.17,1.64,12.94,12.94,0,0,1-2,1.55l2.52,1.46-2.1,1.21L619,482.12a35.11,35.11,0,0,1-4.16,1.75,35.51,35.51,0,0,1-4.3,1.21l-1.36-3.33c.7-.14,1.43-.3,2.19-.5s1.34-.36,2.11-.61a18.25,18.25,0,0,0,2.22-.85l-1.84-1.06c-.65.25-1.33.48-2,.71-1,.34-2,.61-2.84.81a13.72,13.72,0,0,1-2.35.34,7.77,7.77,0,0,1-2-.15,6.27,6.27,0,0,1-1.71-.67,3.77,3.77,0,0,1-1.52-1.42,2.31,2.31,0,0,1-.2-1.61,3.88,3.88,0,0,1,.9-1.67,9,9,0,0,1,1.84-1.62l-2.11-1.22L604,471l2.13,1.23c.63-.3,1.27-.57,1.92-.82s1.31-.48,2-.68,1.27-.39,1.86-.55l1.66-.43Zm-7,3.34a1.35,1.35,0,0,0,.77.15,6.29,6.29,0,0,0,1.16-.25l-1.59-.91C607.33,475.75,607.22,476.09,607.62,476.32Zm10,1.68a1.35,1.35,0,0,0-.82-.12,7.79,7.79,0,0,0-1.23.26l1.54.9a1.87,1.87,0,0,0,.69-.64A.31.31,0,0,0,617.65,478Z" transform="translate(-1.35)"/><path class="cls-11" d="M614.67,472.2c-.58.11-1.18.24-1.8.41s-1.11.3-1.72.5-1.2.43-1.76.67l1.87,1.08c.19-.07.39-.15.62-.22l.68-.24c1.07-.37,2.07-.69,3-.94a15.67,15.67,0,0,1,2.66-.51,8.48,8.48,0,0,1,2.37.06,6.5,6.5,0,0,1,2.16.8,3.41,3.41,0,0,1,1.56,1.52,2.12,2.12,0,0,1,0,1.64,4.91,4.91,0,0,1-1.17,1.64,13.56,13.56,0,0,1-2,1.54l2.52,1.46-2.1,1.21L619,481.34a35.11,35.11,0,0,1-4.16,1.75,33.78,33.78,0,0,1-4.3,1.21L609.2,481c.7-.14,1.43-.3,2.19-.5s1.34-.36,2.11-.61a18.25,18.25,0,0,0,2.22-.85L613.88,478c-.65.25-1.33.48-2,.71a28.5,28.5,0,0,1-2.84.81,13.72,13.72,0,0,1-2.35.34,7,7,0,0,1-2-.15A6,6,0,0,1,603,479a3.7,3.7,0,0,1-1.52-1.42,2.31,2.31,0,0,1-.2-1.61,3.88,3.88,0,0,1,.9-1.67,9.33,9.33,0,0,1,1.84-1.62l-2.11-1.21,2.1-1.22,2.13,1.23c.63-.3,1.27-.57,1.92-.82s1.31-.48,2-.68,1.27-.39,1.86-.55l1.66-.43Zm-7,3.35a1.35,1.35,0,0,0,.77.14,7.06,7.06,0,0,0,1.16-.24l-1.59-.92C607.33,475,607.22,475.31,607.62,475.55Zm10,1.67a1.43,1.43,0,0,0-.82-.12,6.91,6.91,0,0,0-1.23.27l1.54.89a1.87,1.87,0,0,0,.69-.64A.31.31,0,0,0,617.65,477.22Z" transform="translate(-1.35)"/><path class="cls-11" d="M612.82,482.79c-17.25,0-31.24-8.15-31.24-18.19v8.68h0c0,.09,0,.17,0,.26,0,10,14,18.19,31.24,18.19s31.24-8.15,31.24-18.19c0-.09,0-.17,0-.26h0V464.6C644.06,474.64,630.07,482.79,612.82,482.79Z" transform="translate(-1.35)"/><path class="cls-12" d="M612.82,446.41c-17.18,0-31.12,8.07-31.23,18.06,0,0,0,.09,0,.13,0,10,14,18.19,31.24,18.19s31.24-8.15,31.24-18.19c0,0,0-.09,0-.13C643.94,454.48,630,446.41,612.82,446.41Z" transform="translate(-1.35)"/><ellipse class="cls-13" cx="611.47" cy="464.6" rx="23.35" ry="13.6"/><path class="cls-11" d="M612.82,452.46c12.47,0,22.63,5.7,23.29,12.87,0-.25.06-.49.06-.73,0-7.51-10.45-13.6-23.35-13.6s-23.35,6.09-23.35,13.6c0,.24,0,.48.06.73C590.19,458.16,600.35,452.46,612.82,452.46Z" transform="translate(-1.35)"/><path class="cls-12" d="M614.62,460.33c-.58.11-1.18.24-1.8.41s-1.11.3-1.72.5-1.2.43-1.76.67l1.87,1.08c.19-.07.39-.15.62-.22l.68-.24c1.07-.37,2.07-.69,3-.94a15.67,15.67,0,0,1,2.66-.51,8.48,8.48,0,0,1,2.37.06,6.5,6.5,0,0,1,2.16.8,3.41,3.41,0,0,1,1.56,1.52,2.12,2.12,0,0,1,0,1.64,4.77,4.77,0,0,1-1.17,1.64,13,13,0,0,1-2,1.54l2.52,1.46-2.1,1.21L619,469.47a34.42,34.42,0,0,1-4.16,1.75,33.78,33.78,0,0,1-4.3,1.21l-1.36-3.33c.71-.14,1.44-.3,2.19-.5s1.34-.36,2.11-.61a18.25,18.25,0,0,0,2.22-.85l-1.84-1.06c-.65.25-1.32.48-2,.71a28.5,28.5,0,0,1-2.84.81,12.68,12.68,0,0,1-2.35.34,6.88,6.88,0,0,1-2-.15,6,6,0,0,1-1.72-.67,3.7,3.7,0,0,1-1.52-1.42,2.31,2.31,0,0,1-.2-1.61,3.88,3.88,0,0,1,.9-1.67A9.33,9.33,0,0,1,604,460.8l-2.11-1.21,2.1-1.22,2.13,1.23c.63-.3,1.27-.57,1.93-.82s1.3-.48,1.94-.68,1.27-.39,1.86-.55l1.66-.43Zm-7,3.35a1.37,1.37,0,0,0,.78.14,7,7,0,0,0,1.15-.24l-1.59-.92C607.28,463.1,607.17,463.44,607.57,463.68Zm10,1.67a1.43,1.43,0,0,0-.82-.12,6.91,6.91,0,0,0-1.23.27l1.54.89a1.79,1.79,0,0,0,.69-.64A.31.31,0,0,0,617.6,465.35Z" transform="translate(-1.35)"/><path class="cls-11" d="M614.62,459.55c-.58.11-1.18.25-1.8.41s-1.11.3-1.72.5-1.2.43-1.76.67l1.87,1.08.62-.22.68-.24c1.07-.37,2.07-.69,3-.94a17.92,17.92,0,0,1,2.66-.51,8.87,8.87,0,0,1,2.37.06,6.5,6.5,0,0,1,2.16.8,3.41,3.41,0,0,1,1.56,1.52,2.12,2.12,0,0,1,0,1.64A4.77,4.77,0,0,1,623.1,466a13,13,0,0,1-2,1.54l2.52,1.46-2.1,1.21L619,468.69a34.42,34.42,0,0,1-4.16,1.75,33.78,33.78,0,0,1-4.3,1.21l-1.36-3.33c.71-.14,1.44-.3,2.19-.49s1.34-.37,2.11-.61a20.08,20.08,0,0,0,2.22-.86l-1.84-1.06c-.65.25-1.32.49-2,.71a28.5,28.5,0,0,1-2.84.81,12.68,12.68,0,0,1-2.35.34,6.88,6.88,0,0,1-2-.15,6,6,0,0,1-1.72-.67,3.7,3.7,0,0,1-1.52-1.42,2.29,2.29,0,0,1-.2-1.6,3.86,3.86,0,0,1,.9-1.68A9.33,9.33,0,0,1,604,460l-2.11-1.21,2.1-1.21,2.13,1.22c.63-.3,1.27-.57,1.93-.82s1.3-.48,1.94-.68,1.27-.38,1.86-.54l1.66-.44Zm-7,3.35a1.29,1.29,0,0,0,.78.14,6.07,6.07,0,0,0,1.15-.24l-1.59-.92C607.28,462.33,607.17,462.66,607.57,462.9Zm10,1.67a1.35,1.35,0,0,0-.82-.11,6,6,0,0,0-1.23.26l1.54.89a1.79,1.79,0,0,0,.69-.64A.31.31,0,0,0,617.6,464.57Z" transform="translate(-1.35)"/><ellipse class="cls-7" cx="621.66" cy="538.38" rx="32.93" ry="19.01" transform="translate(-4.72 3.92) rotate(-0.36)"/><path class="cls-11" d="M621.17,543.52c-17.25,0-31.24-8.14-31.24-18.19V534h0c0,.08,0,.17,0,.25,0,10.05,14,18.19,31.24,18.19s31.24-8.14,31.24-18.19a2.11,2.11,0,0,0,0-.25h0v-8.69C652.41,535.38,638.42,543.52,621.17,543.52Z" transform="translate(-1.35)"/><path class="cls-12" d="M621.17,507.14c-17.18,0-31.12,8.08-31.23,18.07a.49.49,0,0,0,0,.12c0,10,14,18.19,31.24,18.19s31.24-8.14,31.24-18.19c0,0,0-.08,0-.12C652.29,515.22,638.35,507.14,621.17,507.14Z" transform="translate(-1.35)"/><ellipse class="cls-13" cx="619.82" cy="525.33" rx="23.35" ry="13.6"/><path class="cls-11" d="M621.17,513.19c12.47,0,22.63,5.7,23.29,12.87,0-.24.06-.48.06-.73,0-7.51-10.46-13.6-23.35-13.6s-23.35,6.09-23.35,13.6c0,.25,0,.49.06.73C598.54,518.89,608.7,513.19,621.17,513.19Z" transform="translate(-1.35)"/><path class="cls-12" d="M623,521.06c-.58.11-1.18.25-1.8.41s-1.11.31-1.72.51-1.2.42-1.76.66l1.87,1.09.62-.23.68-.24c1.07-.37,2.07-.68,3-.94a17.92,17.92,0,0,1,2.66-.51,8.86,8.86,0,0,1,2.37.07,6.48,6.48,0,0,1,2.16.79,3.45,3.45,0,0,1,1.56,1.52,2.12,2.12,0,0,1,0,1.64,4.82,4.82,0,0,1-1.17,1.64,12.44,12.44,0,0,1-2,1.54l2.52,1.46-2.1,1.21-2.56-1.48a35.11,35.11,0,0,1-4.16,1.75,33.78,33.78,0,0,1-4.3,1.21l-1.36-3.33c.71-.14,1.43-.3,2.19-.49s1.34-.36,2.11-.61a20.08,20.08,0,0,0,2.22-.86l-1.84-1.06c-.65.25-1.32.49-2,.71a28.5,28.5,0,0,1-2.84.81,13.8,13.8,0,0,1-2.35.35,7.36,7.36,0,0,1-2-.16,5.69,5.69,0,0,1-1.71-.67,3.64,3.64,0,0,1-1.52-1.42,2.28,2.28,0,0,1-.2-1.6,3.91,3.91,0,0,1,.9-1.68,9,9,0,0,1,1.84-1.61l-2.11-1.22,2.1-1.21,2.13,1.23c.63-.31,1.27-.58,1.92-.83s1.31-.47,1.95-.68,1.27-.38,1.86-.54l1.66-.44Zm-7.05,3.35a1.27,1.27,0,0,0,.77.14,5.44,5.44,0,0,0,1.16-.24l-1.59-.92C615.63,523.84,615.52,524.18,615.92,524.41Zm10,1.67a1.35,1.35,0,0,0-.82-.11,6,6,0,0,0-1.23.26l1.54.89a1.87,1.87,0,0,0,.69-.63A.32.32,0,0,0,626,526.08Z" transform="translate(-1.35)"/><path class="cls-11" d="M623,520.28q-.87.16-1.8.42c-.54.13-1.11.3-1.72.5s-1.2.42-1.76.66l1.87,1.09a6.32,6.32,0,0,1,.62-.22l.68-.24c1.07-.38,2.07-.69,3-1a17.92,17.92,0,0,1,2.66-.51,8.86,8.86,0,0,1,2.37.07,6.48,6.48,0,0,1,2.16.79,3.45,3.45,0,0,1,1.56,1.52,2.12,2.12,0,0,1,0,1.64,4.82,4.82,0,0,1-1.17,1.64,13.08,13.08,0,0,1-2,1.55l2.52,1.45-2.1,1.21-2.56-1.48a36.26,36.26,0,0,1-8.46,3l-1.36-3.33c.71-.13,1.43-.3,2.19-.49s1.34-.36,2.11-.61a18.27,18.27,0,0,0,2.22-.86L622.18,526c-.65.25-1.32.49-2,.71-1,.35-2,.62-2.84.82a14.78,14.78,0,0,1-2.35.34,7.81,7.81,0,0,1-2-.15,6,6,0,0,1-1.71-.68,3.64,3.64,0,0,1-1.52-1.42,2.28,2.28,0,0,1-.2-1.6,4,4,0,0,1,.9-1.68,9,9,0,0,1,1.84-1.61l-2.11-1.22,2.1-1.21,2.13,1.23c.63-.3,1.27-.58,1.92-.83s1.31-.47,1.95-.68,1.27-.38,1.86-.54l1.66-.44Zm-7.05,3.35a1.27,1.27,0,0,0,.77.14,5.44,5.44,0,0,0,1.16-.24l-1.59-.91C615.63,523.06,615.52,523.4,615.92,523.63Zm10,1.67a1.35,1.35,0,0,0-.82-.11,6.81,6.81,0,0,0-1.23.26l1.54.89a1.87,1.87,0,0,0,.69-.63A.32.32,0,0,0,626,525.3Z" transform="translate(-1.35)"/><path class="cls-11" d="M621.14,531.11c-17.25,0-31.23-8.14-31.23-18.19v8.69h0c0,.08,0,.16,0,.25,0,10,14,18.19,31.23,18.19s31.24-8.15,31.24-18.19c0-.09,0-.17,0-.25h0v-8.69C652.38,523,638.4,531.11,621.14,531.11Z" transform="translate(-1.35)"/><path class="cls-12" d="M621.14,494.73c-17.17,0-31.11,8.08-31.23,18.06v.13c0,10.05,14,18.19,31.23,18.19s31.24-8.14,31.24-18.19v-.13C652.26,502.81,638.32,494.73,621.14,494.73Z" transform="translate(-1.35)"/><ellipse class="cls-13" cx="619.8" cy="512.92" rx="23.35" ry="13.6"/><path class="cls-11" d="M621.14,500.78c12.48,0,22.64,5.7,23.29,12.87,0-.24.06-.48.06-.73,0-7.51-10.45-13.6-23.35-13.6s-23.35,6.09-23.35,13.6c0,.25.05.49.07.73C598.51,506.48,608.67,500.78,621.14,500.78Z" transform="translate(-1.35)"/><path class="cls-12" d="M623,508.65c-.58.11-1.18.25-1.8.41s-1.12.3-1.73.51-1.2.42-1.76.66l1.88,1.08.61-.22.69-.24c1.06-.37,2.07-.69,3-.94a17.81,17.81,0,0,1,2.65-.51,8.87,8.87,0,0,1,2.37.06,6.64,6.64,0,0,1,2.17.8,3.41,3.41,0,0,1,1.56,1.52,2.21,2.21,0,0,1,0,1.64,4.82,4.82,0,0,1-1.18,1.64,12,12,0,0,1-2,1.54l2.53,1.46-2.1,1.21-2.57-1.48a34.26,34.26,0,0,1-4.15,1.75,33.91,33.91,0,0,1-4.31,1.21l-1.36-3.33c.71-.14,1.44-.3,2.19-.49s1.34-.37,2.12-.61a19.9,19.9,0,0,0,2.21-.86l-1.83-1.06c-.66.25-1.33.49-2,.71a29.4,29.4,0,0,1-2.85.81,12.58,12.58,0,0,1-2.34.34,7,7,0,0,1-2-.15,6,6,0,0,1-1.71-.67,3.7,3.7,0,0,1-1.52-1.42,2.35,2.35,0,0,1-.21-1.6,4.08,4.08,0,0,1,.9-1.68,9.62,9.62,0,0,1,1.84-1.62l-2.1-1.21,2.1-1.21,2.12,1.22c.64-.3,1.28-.57,1.93-.82s1.3-.47,1.95-.68,1.26-.38,1.86-.54l1.65-.44ZM615.9,512a1.26,1.26,0,0,0,.77.14,5.92,5.92,0,0,0,1.15-.24l-1.58-.92C615.61,511.43,615.49,511.76,615.9,512Zm10,1.67a1.39,1.39,0,0,0-.83-.11,6.11,6.11,0,0,0-1.22.26l1.54.89a1.74,1.74,0,0,0,.68-.64A.29.29,0,0,0,625.93,513.67Z" transform="translate(-1.35)"/><path class="cls-11" d="M623,507.87c-.58.11-1.18.25-1.8.41s-1.12.31-1.73.51-1.2.42-1.76.66l1.88,1.09.61-.23.69-.24c1.06-.37,2.07-.68,3-.94a17.81,17.81,0,0,1,2.65-.51,8.86,8.86,0,0,1,2.37.07,6.61,6.61,0,0,1,2.17.79A3.45,3.45,0,0,1,632.6,511a2.21,2.21,0,0,1,0,1.64,4.72,4.72,0,0,1-1.18,1.64,12,12,0,0,1-2,1.54l2.53,1.46-2.1,1.21L627.29,517a34.26,34.26,0,0,1-4.15,1.75,33.91,33.91,0,0,1-4.31,1.21l-1.36-3.33c.71-.14,1.44-.3,2.19-.49s1.34-.36,2.12-.61a18.12,18.12,0,0,0,2.21-.86l-1.83-1.06c-.66.25-1.33.49-2,.71a29.4,29.4,0,0,1-2.85.81,13.56,13.56,0,0,1-2.34.35,7.33,7.33,0,0,1-2-.16,5.69,5.69,0,0,1-1.71-.67,3.64,3.64,0,0,1-1.52-1.42,2.34,2.34,0,0,1-.21-1.6,4.14,4.14,0,0,1,.9-1.68,9.26,9.26,0,0,1,1.84-1.61l-2.1-1.22,2.1-1.21,2.12,1.23c.64-.3,1.28-.58,1.93-.83s1.3-.47,1.95-.68,1.26-.38,1.86-.54l1.65-.44Zm-7.05,3.35a1.26,1.26,0,0,0,.77.14,5.25,5.25,0,0,0,1.15-.24l-1.58-.92C615.61,510.65,615.49,511,615.9,511.22Zm10,1.67a1.39,1.39,0,0,0-.83-.11,6.11,6.11,0,0,0-1.22.26l1.54.89a1.81,1.81,0,0,0,.68-.63C626.17,513.13,626.11,513,625.93,512.89Z" transform="translate(-1.35)"/><ellipse class="cls-7" cx="556.4" cy="518.28" rx="32.93" ry="19.01" transform="translate(-4.6 3.51) rotate(-0.36)"/><path class="cls-11" d="M555.92,523.42c-17.25,0-31.24-8.15-31.24-18.19v8.69h0c0,.08,0,.16,0,.25,0,10,14,18.19,31.24,18.19s31.24-8.15,31.24-18.19a2,2,0,0,0,0-.25h0v-8.69C587.16,515.27,573.17,523.42,555.92,523.42Z" transform="translate(-1.35)"/><path class="cls-12" d="M555.92,487c-17.18,0-31.12,8.07-31.24,18.06v.13c0,10,14,18.19,31.24,18.19s31.24-8.15,31.24-18.19c0,0,0-.09,0-.13C587,495.11,573.1,487,555.92,487Z" transform="translate(-1.35)"/><ellipse class="cls-13" cx="554.57" cy="505.23" rx="23.35" ry="13.6"/><path class="cls-11" d="M555.92,493.09c12.47,0,22.63,5.7,23.29,12.87,0-.25.06-.49.06-.73,0-7.51-10.46-13.6-23.35-13.6s-23.35,6.09-23.35,13.6c0,.24,0,.48.06.73C533.29,498.79,543.45,493.09,555.92,493.09Z" transform="translate(-1.35)"/><path class="cls-12" d="M557.72,501c-.58.11-1.18.24-1.8.41s-1.11.3-1.73.5-1.19.43-1.75.67l1.87,1.08c.19-.07.39-.15.62-.22l.68-.24c1.07-.37,2.07-.69,3-.94a15.67,15.67,0,0,1,2.66-.51,8.48,8.48,0,0,1,2.37.06,6.59,6.59,0,0,1,2.16.8,3.41,3.41,0,0,1,1.56,1.52,2.12,2.12,0,0,1,0,1.64,4.91,4.91,0,0,1-1.17,1.64,13.56,13.56,0,0,1-2,1.54l2.52,1.46-2.1,1.21-2.56-1.48a35.11,35.11,0,0,1-4.16,1.75,33.78,33.78,0,0,1-4.3,1.21l-1.36-3.33c.7-.14,1.43-.3,2.18-.5s1.35-.36,2.12-.61a18.25,18.25,0,0,0,2.22-.85l-1.84-1.06c-.65.25-1.33.48-2,.71a28.5,28.5,0,0,1-2.84.81,12.79,12.79,0,0,1-2.35.34,7,7,0,0,1-2-.15,6,6,0,0,1-1.71-.67,3.7,3.7,0,0,1-1.52-1.42,2.31,2.31,0,0,1-.2-1.61,3.88,3.88,0,0,1,.9-1.67,9.33,9.33,0,0,1,1.84-1.62L545,500.22l2.1-1.22,2.13,1.23c.63-.3,1.27-.57,1.92-.82s1.31-.48,1.95-.68,1.27-.39,1.86-.55l1.66-.43Zm-7.05,3.35a1.35,1.35,0,0,0,.77.14,7.06,7.06,0,0,0,1.16-.24l-1.59-.92C550.38,503.73,550.27,504.07,550.67,504.31Zm10,1.67a1.43,1.43,0,0,0-.82-.12,6.91,6.91,0,0,0-1.23.27l1.54.89a1.87,1.87,0,0,0,.69-.64A.31.31,0,0,0,560.7,506Z" transform="translate(-1.35)"/><path class="cls-11" d="M557.72,500.18c-.58.11-1.18.25-1.8.41s-1.11.3-1.73.5-1.19.43-1.75.67l1.87,1.08.62-.22.68-.24c1.07-.37,2.07-.69,3-.94a17.92,17.92,0,0,1,2.66-.51,8.87,8.87,0,0,1,2.37.06,6.59,6.59,0,0,1,2.16.8,3.41,3.41,0,0,1,1.56,1.52,2.12,2.12,0,0,1,0,1.64,4.91,4.91,0,0,1-1.17,1.64,13.56,13.56,0,0,1-2,1.54l2.52,1.46-2.1,1.21-2.56-1.48a35.11,35.11,0,0,1-4.16,1.75,33.78,33.78,0,0,1-4.3,1.21L552.25,509c.7-.14,1.43-.3,2.18-.49s1.35-.37,2.12-.61a20.08,20.08,0,0,0,2.22-.86l-1.84-1.06c-.65.25-1.33.49-2,.71a28.5,28.5,0,0,1-2.84.81,12.79,12.79,0,0,1-2.35.34,7,7,0,0,1-2-.15A6,6,0,0,1,546,507a3.7,3.7,0,0,1-1.52-1.42,2.29,2.29,0,0,1-.2-1.6,3.86,3.86,0,0,1,.9-1.68,9.33,9.33,0,0,1,1.84-1.62L545,499.44l2.1-1.21,2.13,1.22c.63-.3,1.27-.57,1.92-.82s1.31-.48,1.95-.68,1.27-.38,1.86-.54l1.66-.44Zm-7.05,3.35a1.27,1.27,0,0,0,.77.14,6.15,6.15,0,0,0,1.16-.24l-1.59-.92C550.38,503,550.27,503.29,550.67,503.53Zm10,1.67a1.35,1.35,0,0,0-.82-.11,6,6,0,0,0-1.23.26l1.54.89a1.87,1.87,0,0,0,.69-.64A.31.31,0,0,0,560.7,505.2Z" transform="translate(-1.35)"/><path class="cls-11" d="M555.89,511c-17.25,0-31.23-8.15-31.23-18.19v8.68h0c0,.09,0,.17,0,.25,0,10.05,14,18.19,31.23,18.19s31.24-8.14,31.24-18.19c0-.08,0-.16,0-.25h0v-8.68C587.13,502.86,573.15,511,555.89,511Z" transform="translate(-1.35)"/><path class="cls-12" d="M555.89,474.63c-17.18,0-31.11,8.07-31.23,18.06v.13c0,10,14,18.19,31.23,18.19s31.24-8.15,31.24-18.19v-.13C587,482.7,573.07,474.63,555.89,474.63Z" transform="translate(-1.35)"/><ellipse class="cls-13" cx="554.55" cy="492.82" rx="23.35" ry="13.6"/><path class="cls-11" d="M555.89,480.68c12.48,0,22.64,5.7,23.29,12.87,0-.25.06-.49.06-.73,0-7.51-10.45-13.6-23.35-13.6s-23.35,6.09-23.35,13.6a6.21,6.21,0,0,0,.07.73C533.26,486.38,543.42,480.68,555.89,480.68Z" transform="translate(-1.35)"/><path class="cls-12" d="M557.7,488.55c-.58.11-1.18.24-1.8.41s-1.12.3-1.73.5-1.2.43-1.76.67l1.88,1.08.61-.22.69-.24c1.06-.37,2.07-.69,3-.94a15.57,15.57,0,0,1,2.65-.51,8.48,8.48,0,0,1,2.37.06,6.64,6.64,0,0,1,2.17.8,3.41,3.41,0,0,1,1.56,1.52,2.19,2.19,0,0,1,0,1.63,4.63,4.63,0,0,1-1.18,1.64,12,12,0,0,1-2,1.55l2.53,1.46-2.1,1.21L562,497.69a35,35,0,0,1-4.15,1.75,35.64,35.64,0,0,1-4.31,1.21l-1.36-3.33c.71-.14,1.44-.3,2.19-.5s1.34-.36,2.12-.61a18.09,18.09,0,0,0,2.21-.85l-1.83-1.06c-.66.25-1.33.48-2,.71q-1.57.51-2.85.81a13.48,13.48,0,0,1-2.34.34,7.77,7.77,0,0,1-2-.15,6.27,6.27,0,0,1-1.71-.67,3.77,3.77,0,0,1-1.52-1.42,2.32,2.32,0,0,1-.21-1.61,4.11,4.11,0,0,1,.9-1.67A9.29,9.29,0,0,1,547,489l-2.1-1.22,2.1-1.21,2.12,1.23c.63-.3,1.28-.57,1.93-.82s1.3-.48,1.95-.68,1.26-.39,1.86-.55l1.65-.43Zm-7.05,3.34a1.32,1.32,0,0,0,.77.15,6,6,0,0,0,1.15-.25l-1.58-.91C550.36,491.32,550.24,491.66,550.65,491.89Zm10,1.68a1.38,1.38,0,0,0-.83-.12,7.93,7.93,0,0,0-1.22.26l1.54.9a1.74,1.74,0,0,0,.68-.64A.29.29,0,0,0,560.68,493.57Z" transform="translate(-1.35)"/><path class="cls-11" d="M557.7,487.77c-.58.11-1.18.24-1.8.41s-1.12.3-1.73.5-1.2.43-1.76.67l1.88,1.08.61-.22.69-.24c1.06-.37,2.07-.69,3-.94a15.57,15.57,0,0,1,2.65-.51,8.48,8.48,0,0,1,2.37.06,6.64,6.64,0,0,1,2.17.8,3.41,3.41,0,0,1,1.56,1.52,2.21,2.21,0,0,1,0,1.64,4.82,4.82,0,0,1-1.18,1.64,12.57,12.57,0,0,1-2,1.54l2.53,1.46-2.1,1.21L562,496.91a35,35,0,0,1-4.15,1.75,33.91,33.91,0,0,1-4.31,1.21l-1.36-3.33c.71-.14,1.44-.3,2.19-.5s1.34-.36,2.12-.6a19.9,19.9,0,0,0,2.21-.86l-1.83-1.06c-.66.25-1.33.48-2,.71A29.4,29.4,0,0,1,552,495a12.58,12.58,0,0,1-2.34.34,7,7,0,0,1-2-.15,6,6,0,0,1-1.71-.67,3.7,3.7,0,0,1-1.52-1.42,2.32,2.32,0,0,1-.21-1.61,4.11,4.11,0,0,1,.9-1.67,9.62,9.62,0,0,1,1.84-1.62l-2.1-1.21,2.1-1.22,2.12,1.23c.63-.3,1.28-.57,1.93-.82s1.3-.48,1.95-.68,1.26-.38,1.86-.55l1.65-.43Zm-7.05,3.35a1.32,1.32,0,0,0,.77.14,6.78,6.78,0,0,0,1.15-.24L551,490.1C550.36,490.54,550.24,490.88,550.65,491.12Zm10,1.67a1.46,1.46,0,0,0-.83-.12,7,7,0,0,0-1.22.27l1.54.89a1.74,1.74,0,0,0,.68-.64A.29.29,0,0,0,560.68,492.79Z" transform="translate(-1.35)"/><path class="cls-11" d="M555.85,498.36c-17.26,0-31.24-8.15-31.24-18.19v8.69h0c0,.08,0,.16,0,.25,0,10,14,18.19,31.24,18.19s31.23-8.15,31.23-18.19c0-.09,0-.17,0-.25h0v-8.69C587.08,490.21,573.1,498.36,555.85,498.36Z" transform="translate(-1.35)"/><path class="cls-12" d="M555.85,462c-17.18,0-31.12,8.07-31.24,18.06v.13c0,10,14,18.19,31.24,18.19s31.23-8.15,31.23-18.19V480C587,470.05,573,462,555.85,462Z" transform="translate(-1.35)"/><ellipse class="cls-13" cx="554.5" cy="480.17" rx="23.35" ry="13.6"/><path class="cls-11" d="M555.85,468c12.47,0,22.63,5.7,23.28,12.87,0-.25.07-.49.07-.73,0-7.51-10.46-13.6-23.35-13.6s-23.35,6.09-23.35,13.6c0,.24,0,.48.06.73C533.21,473.73,543.37,468,555.85,468Z" transform="translate(-1.35)"/><path class="cls-12" d="M557.65,475.9c-.58.11-1.18.24-1.8.41s-1.12.3-1.73.5-1.2.43-1.76.67l1.88,1.08.61-.22.69-.24c1.06-.37,2.07-.69,3-.94a15.57,15.57,0,0,1,2.65-.51,8.47,8.47,0,0,1,2.37.06,6.64,6.64,0,0,1,2.17.8A3.41,3.41,0,0,1,567.3,479a2.21,2.21,0,0,1,0,1.64,4.91,4.91,0,0,1-1.17,1.64,13.56,13.56,0,0,1-2,1.54l2.52,1.46-2.1,1.21L562,485a35.11,35.11,0,0,1-4.16,1.75,34.24,34.24,0,0,1-4.3,1.21l-1.37-3.33c.71-.14,1.44-.3,2.19-.5s1.34-.36,2.12-.6a19.16,19.16,0,0,0,2.21-.86l-1.83-1.06c-.65.25-1.33.48-2,.71a29.4,29.4,0,0,1-2.85.81,12.58,12.58,0,0,1-2.34.34,7,7,0,0,1-2-.15,6,6,0,0,1-1.71-.67,3.7,3.7,0,0,1-1.52-1.42,2.37,2.37,0,0,1-.21-1.61,4.11,4.11,0,0,1,.9-1.67,9.62,9.62,0,0,1,1.84-1.62l-2.1-1.21L547,474l2.12,1.22c.64-.3,1.28-.57,1.93-.82s1.3-.48,2-.68,1.26-.39,1.86-.55l1.65-.43Zm-7,3.35a1.33,1.33,0,0,0,.77.14,6.78,6.78,0,0,0,1.15-.24l-1.58-.92C550.31,478.67,550.19,479,550.6,479.25Zm10,1.67a1.46,1.46,0,0,0-.83-.12,7,7,0,0,0-1.22.27l1.54.89a1.74,1.74,0,0,0,.68-.64A.29.29,0,0,0,560.63,480.92Z" transform="translate(-1.35)"/><path class="cls-11" d="M557.65,475.12c-.58.11-1.18.25-1.8.41s-1.12.3-1.73.51-1.2.42-1.76.66l1.88,1.08.61-.22c.23-.07.45-.15.69-.24,1.06-.37,2.07-.69,3-.94a17.81,17.81,0,0,1,2.65-.51,8.46,8.46,0,0,1,2.37.07,6.39,6.39,0,0,1,2.17.79,3.41,3.41,0,0,1,1.56,1.52,2.21,2.21,0,0,1,0,1.64,4.91,4.91,0,0,1-1.17,1.64,12.91,12.91,0,0,1-2,1.54l2.52,1.46-2.1,1.21L562,484.26a35.11,35.11,0,0,1-4.16,1.75,34.24,34.24,0,0,1-4.3,1.21l-1.37-3.33c.71-.14,1.44-.3,2.19-.49s1.34-.37,2.12-.61a19.16,19.16,0,0,0,2.21-.86l-1.83-1.06c-.65.25-1.33.49-2,.71a29.4,29.4,0,0,1-2.85.81,12.58,12.58,0,0,1-2.34.34,7,7,0,0,1-2-.15,6,6,0,0,1-1.71-.67,3.7,3.7,0,0,1-1.52-1.42,2.35,2.35,0,0,1-.21-1.6,4.08,4.08,0,0,1,.9-1.68,9.62,9.62,0,0,1,1.84-1.62l-2.1-1.21,2.1-1.21,2.12,1.22c.64-.3,1.28-.57,1.93-.82s1.3-.48,2-.68,1.26-.38,1.86-.54l1.65-.44Zm-7,3.35a1.26,1.26,0,0,0,.77.14,5.92,5.92,0,0,0,1.15-.24l-1.58-.92C550.31,477.9,550.19,478.23,550.6,478.47Zm10,1.67a1.39,1.39,0,0,0-.83-.11,6.11,6.11,0,0,0-1.22.26l1.54.89a1.74,1.74,0,0,0,.68-.64A.29.29,0,0,0,560.63,480.14Z" transform="translate(-1.35)"/><path class="cls-11" d="M555.82,485.63c-17.25,0-31.24-8.14-31.24-18.19v8.69h0a2,2,0,0,0,0,.25c0,10,14,18.19,31.24,18.19s31.24-8.15,31.24-18.19c0-.09,0-.17,0-.25h0v-8.69C587.06,477.49,573.07,485.63,555.82,485.63Z" transform="translate(-1.35)"/><path class="cls-12" d="M555.82,449.25c-17.18,0-31.12,8.08-31.23,18.06,0,.05,0,.09,0,.13,0,10.05,14,18.19,31.24,18.19s31.24-8.14,31.24-18.19a.62.62,0,0,0,0-.13C586.94,457.33,573,449.25,555.82,449.25Z" transform="translate(-1.35)"/><ellipse class="cls-13" cx="554.47" cy="467.44" rx="23.35" ry="13.6"/><path class="cls-11" d="M555.82,455.3c12.47,0,22.63,5.7,23.29,12.87,0-.24.06-.48.06-.73,0-7.51-10.45-13.6-23.35-13.6s-23.35,6.09-23.35,13.6c0,.25,0,.49.06.73C533.19,461,543.35,455.3,555.82,455.3Z" transform="translate(-1.35)"/><path class="cls-12" d="M557.62,463.17c-.58.11-1.18.25-1.8.41s-1.11.3-1.72.51-1.2.42-1.76.66l1.88,1.08.61-.22.69-.24c1.06-.37,2.06-.69,3-.94a17.92,17.92,0,0,1,2.66-.51,8.47,8.47,0,0,1,2.37.07,6.27,6.27,0,0,1,2.16.79,3.41,3.41,0,0,1,1.56,1.52,2.12,2.12,0,0,1,0,1.64,4.56,4.56,0,0,1-1.17,1.64,12.44,12.44,0,0,1-2,1.54l2.52,1.46-2.09,1.21L562,472.31a35,35,0,0,1-4.15,1.75,34.37,34.37,0,0,1-4.31,1.21l-1.36-3.33c.71-.14,1.44-.3,2.19-.49s1.34-.36,2.12-.61a20.7,20.7,0,0,0,2.21-.86l-1.84-1.06c-.65.25-1.32.49-2,.71a28.5,28.5,0,0,1-2.84.81,12.56,12.56,0,0,1-2.35.34,6.88,6.88,0,0,1-2-.15,6.14,6.14,0,0,1-1.72-.67,3.77,3.77,0,0,1-1.52-1.42,2.29,2.29,0,0,1-.2-1.6,3.86,3.86,0,0,1,.9-1.68,9.33,9.33,0,0,1,1.84-1.62l-2.11-1.21,2.1-1.21,2.13,1.22c.63-.3,1.27-.57,1.93-.82s1.3-.47,1.94-.68,1.27-.38,1.87-.54l1.65-.44Zm-7,3.35a1.29,1.29,0,0,0,.78.14,5.37,5.37,0,0,0,1.15-.24l-1.59-.92C550.28,466,550.17,466.28,550.57,466.52Zm10,1.67a1.35,1.35,0,0,0-.82-.11,6,6,0,0,0-1.23.26l1.55.89a1.74,1.74,0,0,0,.68-.64A.31.31,0,0,0,560.6,468.19Z" transform="translate(-1.35)"/><path class="cls-11" d="M557.62,462.39c-.58.11-1.18.25-1.8.41s-1.11.31-1.72.51-1.2.42-1.76.66l1.88,1.09c.18-.08.39-.15.61-.23l.69-.23c1.06-.38,2.06-.69,3-1a17.92,17.92,0,0,1,2.66-.51,8.86,8.86,0,0,1,2.37.07,6.48,6.48,0,0,1,2.16.79,3.45,3.45,0,0,1,1.56,1.52,2.12,2.12,0,0,1,0,1.64,4.56,4.56,0,0,1-1.17,1.64,13.08,13.08,0,0,1-2,1.55l2.52,1.45L564.54,473,562,471.53a35,35,0,0,1-4.15,1.75,34.37,34.37,0,0,1-4.31,1.21l-1.36-3.33c.71-.14,1.44-.3,2.19-.49s1.34-.36,2.12-.61a18.77,18.77,0,0,0,2.21-.86l-1.84-1.06c-.65.25-1.32.49-2,.71a28.5,28.5,0,0,1-2.84.81,13.52,13.52,0,0,1-2.35.35,7.25,7.25,0,0,1-2-.16,5.85,5.85,0,0,1-1.72-.67,3.7,3.7,0,0,1-1.52-1.42,2.28,2.28,0,0,1-.2-1.6,3.91,3.91,0,0,1,.9-1.68,9,9,0,0,1,1.84-1.61l-2.11-1.22,2.1-1.21,2.13,1.23c.63-.3,1.27-.58,1.93-.83s1.3-.47,1.94-.68,1.27-.38,1.87-.54l1.65-.44Zm-7,3.35a1.29,1.29,0,0,0,.78.14,5.37,5.37,0,0,0,1.15-.24l-1.59-.92C550.28,465.17,550.17,465.51,550.57,465.74Zm10,1.67a1.35,1.35,0,0,0-.82-.11,6.81,6.81,0,0,0-1.23.26l1.55.89a1.81,1.81,0,0,0,.68-.63A.32.32,0,0,0,560.6,467.41Z" transform="translate(-1.35)"/><path class="cls-11" d="M556,472.94c-17.25,0-31.23-8.14-31.23-18.19v8.69h0a2,2,0,0,0,0,.25c0,10,14,18.19,31.23,18.19s31.24-8.15,31.24-18.19c0-.09,0-.17,0-.25h0v-8.69C587.27,464.8,573.28,472.94,556,472.94Z" transform="translate(-1.35)"/><path class="cls-12" d="M556,436.56c-17.18,0-31.12,8.08-31.23,18.06v.13c0,10.05,14,18.19,31.23,18.19s31.24-8.14,31.24-18.19v-.13C587.15,444.64,573.21,436.56,556,436.56Z" transform="translate(-1.35)"/><ellipse class="cls-13" cx="554.68" cy="454.75" rx="23.35" ry="13.6"/><path class="cls-11" d="M556,442.61c12.48,0,22.63,5.7,23.29,12.87,0-.24.06-.48.06-.73,0-7.51-10.45-13.6-23.35-13.6s-23.35,6.09-23.35,13.6a5.82,5.82,0,0,0,.07.73C533.4,448.31,543.56,442.61,556,442.61Z" transform="translate(-1.35)"/><path class="cls-12" d="M557.83,450.48c-.57.11-1.17.25-1.8.41s-1.11.3-1.72.51-1.2.42-1.76.66l1.88,1.08.61-.22.69-.24c1.06-.37,2.06-.68,3-.94a17.81,17.81,0,0,1,2.65-.51,8.47,8.47,0,0,1,2.37.07,6.39,6.39,0,0,1,2.17.79,3.42,3.42,0,0,1,1.55,1.52,2.12,2.12,0,0,1,0,1.64,4.56,4.56,0,0,1-1.17,1.64,12.44,12.44,0,0,1-2,1.54l2.53,1.46-2.1,1.21-2.57-1.48a35,35,0,0,1-4.15,1.75,33.91,33.91,0,0,1-4.31,1.21l-1.36-3.33c.71-.14,1.44-.3,2.19-.49s1.34-.36,2.12-.61a20.7,20.7,0,0,0,2.21-.86l-1.83-1.06c-.66.25-1.33.49-2,.71a28.5,28.5,0,0,1-2.84.81,12.58,12.58,0,0,1-2.34.34,6.92,6.92,0,0,1-2-.15,6.14,6.14,0,0,1-1.72-.67,3.67,3.67,0,0,1-1.51-1.42,2.24,2.24,0,0,1-.21-1.6,3.86,3.86,0,0,1,.9-1.68,9.62,9.62,0,0,1,1.84-1.62l-2.1-1.21,2.09-1.21,2.13,1.23c.63-.31,1.28-.58,1.93-.83s1.3-.47,1.95-.68,1.26-.38,1.86-.54l1.65-.44Zm-7.05,3.35a1.29,1.29,0,0,0,.78.14,5.37,5.37,0,0,0,1.15-.24l-1.59-.92C550.49,453.26,550.38,453.59,550.78,453.83Zm10,1.67a1.35,1.35,0,0,0-.82-.11,6,6,0,0,0-1.23.26l1.55.89a1.74,1.74,0,0,0,.68-.64A.31.31,0,0,0,560.81,455.5Z" transform="translate(-1.35)"/><path class="cls-11" d="M557.83,449.7c-.57.11-1.17.25-1.8.41s-1.11.31-1.72.51-1.2.42-1.76.66l1.88,1.09a6.09,6.09,0,0,1,.61-.22l.69-.24c1.06-.38,2.06-.69,3-1a17.81,17.81,0,0,1,2.65-.51,8.86,8.86,0,0,1,2.37.07,6.61,6.61,0,0,1,2.17.79,3.42,3.42,0,0,1,1.55,1.52,2.12,2.12,0,0,1,0,1.64,4.56,4.56,0,0,1-1.17,1.64,13.08,13.08,0,0,1-2,1.55l2.53,1.45-2.1,1.21-2.57-1.48a35,35,0,0,1-4.15,1.75,33.91,33.91,0,0,1-4.31,1.21l-1.36-3.33c.71-.14,1.44-.3,2.19-.49s1.34-.36,2.12-.61a18.77,18.77,0,0,0,2.21-.86l-1.83-1.06c-.66.25-1.33.49-2,.71a28.5,28.5,0,0,1-2.84.81,13.56,13.56,0,0,1-2.34.35,7.29,7.29,0,0,1-2-.16,5.85,5.85,0,0,1-1.72-.67,3.61,3.61,0,0,1-1.51-1.42,2.24,2.24,0,0,1-.21-1.6,3.91,3.91,0,0,1,.9-1.68,9.26,9.26,0,0,1,1.84-1.61l-2.1-1.22,2.09-1.21,2.13,1.23c.63-.3,1.28-.58,1.93-.83s1.3-.47,1.95-.68,1.26-.38,1.86-.54l1.65-.44Zm-7.05,3.35a1.29,1.29,0,0,0,.78.14,5.37,5.37,0,0,0,1.15-.24l-1.59-.92C550.49,452.48,550.38,452.82,550.78,453.05Zm10,1.67a1.35,1.35,0,0,0-.82-.11,6.81,6.81,0,0,0-1.23.26l1.55.89a1.81,1.81,0,0,0,.68-.63A.32.32,0,0,0,560.81,454.72Z" transform="translate(-1.35)"/><path class="cls-7" d="M890.27,404.53,854,425.64c-4.12-9.95-12.51-19.16-24.63-26.79-19.1-12.08-45-18.73-72.91-18.73-28.12,0-54.54,6.77-74.39,19.05C663,410.84,652.53,426,652.42,442c-.1,15,9.31,29.48,26,40.29a15.54,15.54,0,0,0,1.54,1c19.15,12.08,45.06,18.74,73,18.74,28.06,0,54.47-6.75,74.34-19,.87-.53,3.32-2.14,3.32-2.14,12.57-8.46,20.95-18.64,24.45-29.42L907.7,467C926.21,445.83,919.38,421.34,890.27,404.53Z" transform="translate(-1.35)"/><polygon class="cls-14" points="687.88 422.72 687.74 471.19 753.22 433.14 818.7 395.08 818.84 346.61 753.35 384.67 687.88 422.72"/><path class="cls-15" d="M688.79,346.61c-36.16,21-36,55.09.44,76.11l65.47-38.05,65.48-38.06C783.79,325.6,725,325.59,688.79,346.61Z" transform="translate(-1.35)"/><path class="cls-16" d="M688.79,346.62A75,75,0,0,0,677,355c-.85.75-1.65,1.5-2.42,2.25-8.56,8.41-12.81,17.89-12.76,27.39h92.9l65.48-38C783.79,325.61,725,325.58,688.79,346.62Z" transform="translate(-1.35)"/><path class="cls-17" d="M670.45,407.21a43.78,43.78,0,0,1-3.43-4.89,37.81,37.81,0,0,1-3.53-7.58,32.22,32.22,0,0,1-1.69-10.34l-.14,48.46c0,13.86,9.11,27.75,27.43,38.33l.14-48.47A66.11,66.11,0,0,1,670.45,407.21Z" transform="translate(-1.35)"/><path class="cls-4" d="M899.78,452.8c6.89-7.89,10.27-16.23,10.3-24.47l.13-84.77c0,8.24-3.4,16.58-10.29,24.47Z" transform="translate(-1.35)"/><path class="cls-5" d="M882.49,305.55,817,343.61,899.92,368C918.43,346.85,911.6,322.37,882.49,305.55Z" transform="translate(-1.35)"/><polygon class="cls-18" points="815.52 428.38 898.43 452.8 898.57 368.03 815.65 343.61 815.52 428.38"/><path class="cls-19" d="M834.7,412.16c-.51.49-1,1-1.54,1.47l-1.44,1.26c-.41.34-.8.69-1.22,1s-1,.81-1.55,1.22l-1.27,1c-.55.41-1.12.79-1.69,1.19s-.86.61-1.3.9c-.61.4-1.24.78-1.86,1.17-.44.28-.86.56-1.31.82l-.5.29c-.8.48-1.61.94-2.44,1.39l-.92.5c-.76.4-1.53.79-2.3,1.18l-.83.41c-1,.5-2.08,1-3.15,1.46l-.57.24c-.89.4-1.8.78-2.72,1.15l-1,.41q-1.26.5-2.55,1l-.9.33q-1.7.6-3.42,1.17c-1.36.43-2.73.85-4.13,1.25l-.23.06c-1.32.38-2.65.73-4,1.07l-1.46.34c-1,.23-1.89.46-2.86.66l-1.74.36c-.88.18-1.76.36-2.65.52l-1.43.25c-1.37.24-2.74.46-4.12.66l-1.51.22c-1.79.24-3.58.46-5.39.64l-.52.05c-1.41.13-2.83.25-4.26.35l-1.64.09c-1.06.06-2.13.12-3.2.16-.68,0-1.37,0-2.06.06l-2.49.05h-2.13l-2.49,0-2.21-.06-2.27-.09-2.26-.12L742.9,438l-2.27-.19-2.23-.22c-.75-.07-1.5-.16-2.26-.26s-1.48-.18-2.22-.28-1.46-.21-2.19-.31-1.59-.24-2.39-.38l-2.15-.38q-1.19-.21-2.37-.45l-2-.42c-.94-.2-1.87-.42-2.8-.64l-1.92-.46c-.95-.24-1.89-.49-2.84-.75s-1.62-.43-2.42-.67c-1.06-.31-2.08-.63-3.08-.95l-.93-.3-2-.68-1-.37c-.63-.22-1.25-.45-1.86-.68l-1-.37-1.26-.5c-.7-.28-1.38-.57-2.06-.86l-1.21-.53c-.65-.29-1.31-.59-2-.9l-1.14-.55c-.69-.33-1.38-.69-2.07-1l-1-.51c-1-.53-2-1.08-3-1.65l-.14,48.47c1,.57,2,1.12,3,1.66l1,.49q1,.54,2.07,1.05l1.14.55,2,.91,1.2.52,2.06.85c.27.11.52.23.79.33l.47.18,1,.37,1.86.68,1,.36,2,.69.93.3c1,.32,2,.64,3.08.95l1.13.33,1.3.34c.94.26,1.88.51,2.83.75l1.92.47c.93.21,1.86.43,2.8.63l1,.22,1,.2,2.37.45,2.15.38,2.39.38,1.26.2.93.12c.74.09,1.48.19,2.23.27s1.5.18,2.25.26l2.23.22,1.3.12,1,.07c.75.06,1.5.11,2.26.15l2.25.13,2.27.09,1.3.05h.91c.83,0,1.66,0,2.49,0h2.13l2.5-.05,1.41,0,.65,0c1.07,0,2.13-.1,3.2-.16l1.63-.1c1.43-.09,2.85-.21,4.26-.35l.48,0h0c1.81-.18,3.61-.41,5.39-.65.51-.06,1-.14,1.51-.21,1.38-.2,2.76-.42,4.12-.66.31-.05.62-.09.92-.15l.51-.1c.89-.16,1.77-.34,2.65-.52.58-.12,1.17-.23,1.75-.36,1-.2,1.91-.43,2.86-.66l1.45-.34c1.35-.34,2.68-.7,4-1.07l.23-.06c1.39-.4,2.76-.82,4.12-1.26l.15,0c1.1-.36,2.19-.73,3.27-1.12l.9-.33c.86-.31,1.71-.63,2.55-1l1-.4c.92-.37,1.82-.75,2.72-1.14l.58-.25q1.61-.7,3.15-1.47l.82-.4c.78-.39,1.54-.79,2.3-1.19l.92-.49c.83-.45,1.65-.92,2.45-1.39l.49-.29.14-.07c.4-.24.78-.5,1.17-.75.63-.39,1.26-.77,1.86-1.17s.87-.6,1.3-.9,1.14-.79,1.69-1.19l1.27-1c.52-.4,1.05-.8,1.56-1.22l1.21-1L833,462.1l.26-.23c.44-.4.85-.82,1.28-1.24.25-.26.51-.5.76-.75.75-.76,1.47-1.53,2.16-2.32l.14-48.47c-.69.79-1.41,1.56-2.16,2.32Z" transform="translate(-1.35)"/><path class="cls-20" d="M689.23,422.72a103.47,103.47,0,0,0,23.57,9.89c45.79,13.49,101.67,3,124.82-23.52L754.7,384.67Z" transform="translate(-1.35)"/><path class="cls-21" d="M612.89,640.48c0,1.64-1.13,3.27-3.3,4.52l-174,100.44c-4.38,2.53-11.46,2.54-15.81,0l-78.29-45.2a5.93,5.93,0,0,1-3.18-3.85h-.07v6.51l.05,0a5.88,5.88,0,0,0,3.2,3.93l78.29,45.2c4.35,2.52,11.43,2.5,15.81,0l174-100.44c2.07-1.19,3.16-2.74,3.28-4.3h0v-6.8Z" transform="translate(-1.35)"/><path class="cls-22" d="M341.52,700.27l78.29,45.2c4.35,2.51,11.43,2.5,15.81,0L609.59,645c2.17-1.25,3.26-2.88,3.3-4.52s-1-3.34-3.24-4.61l-78.3-45.2C527,588.16,341.57,691.14,341.57,691.14c-2.5,1.45-3.57,3.4-3.23,5.28A5.93,5.93,0,0,0,341.52,700.27Z" transform="translate(-1.35)"/><polygon class="cls-14" points="560.93 608.52 371.09 718.13 352.13 707.17 541.96 597.57 560.93 608.52"/><polygon class="cls-21" points="568.57 630.25 505.7 666.55 492.55 658.95 555.42 622.66 568.57 630.25"/><path class="cls-14" d="M1403.41,650.69,1005.57,421c-7-4.06-18.45-4-25.53.05L945.49,441l422.29,245,27.33-15.78,8.2-4.74q.4-.23.78-.48c3.13-2,4.65-4.62,4.55-7.17S1406.8,652.65,1403.41,650.69Z" transform="translate(-1.35)"/><ellipse class="cls-23" cx="992.27" cy="442.56" rx="7.05" ry="4.07" transform="translate(-4.11 6.25) rotate(-0.36)"/><ellipse class="cls-23" cx="1012.52" cy="454.64" rx="7.05" ry="4.07" transform="translate(-4.19 6.38) rotate(-0.36)"/><ellipse class="cls-23" cx="1034.24" cy="467.07" rx="7.05" ry="4.07" transform="translate(-4.27 6.52) rotate(-0.36)"/><path class="cls-24" d="M1331.83,650.09a7.38,7.38,0,0,1,2.73-.38c3.58,0,7.15,0,10.73,0a6.44,6.44,0,0,1,2.33.3c1.07-2.85,3.77-5,8.26-6.29a24.05,24.05,0,0,1,9.67-.73c7.37.9,12.34,4.64,12,8.95s-6,7.69-13.34,8.22a24.66,24.66,0,0,1-7.41-.56,17.09,17.09,0,0,1-6-2.57,7.83,7.83,0,0,1-3.13-3.94,9.88,9.88,0,0,1-3.56.3l-9.48,0a7.51,7.51,0,0,1-2.76-.36l-.59-.34a4.31,4.31,0,0,1-.58-.88c-.19-.5.13-1,.6-1.39Zm22.69-3.17c-4.39,2.55-4.41,6.68,0,9.19s11.52,2.51,15.92,0,4.43-6.66,0-9.18S1358.91,644.38,1354.52,646.92Z" transform="translate(-1.35)"/><path class="cls-14" d="M1301,493.33,903.13,263.65c-7-4.06-18.45-4-25.53.05l-34.54,19.94,422.28,245,27.34-15.78,8.2-4.73.77-.48c3.13-2,4.65-4.62,4.55-7.17S1304.36,495.29,1301,493.33Z" transform="translate(-1.35)"/><ellipse class="cls-23" cx="889.83" cy="285.2" rx="7.05" ry="4.07" transform="translate(-3.13 5.6) rotate(-0.36)"/><ellipse class="cls-23" cx="910.08" cy="297.29" rx="7.05" ry="4.07" transform="matrix(1, -0.01, 0.01, 1, -3.2, 5.73)"/><ellipse class="cls-23" cx="931.8" cy="309.71" rx="7.05" ry="4.07" transform="translate(-3.28 5.87) rotate(-0.36)"/><path class="cls-25" d="M1080,180.65c0-8.77-6.19-19.45-13.84-23.87L952.71,91.29a11.83,11.83,0,0,0-7.15-1.85,7.22,7.22,0,0,0-1.83.46c-2.71.82-7.75,2.9-10.6,7.62h0A7,7,0,0,1,939.44,95a13.27,13.27,0,0,1,5.45,1.87l113.44,65.49c7.65,4.42,13.84,15.1,13.84,23.87v130a14.46,14.46,0,0,1-.57,4.2,7.87,7.87,0,0,1-3.17,4.48c10.56-2.62,11.32-11.36,11.32-11.36h0a16,16,0,0,0,.24-2.86Z" transform="translate(-1.35)"/><path class="cls-7" d="M1071.6,320.43a14.46,14.46,0,0,0,.57-4.2v-130c0-8.77-6.19-19.45-13.84-23.87L944.89,96.83A13.27,13.27,0,0,0,939.44,95a7,7,0,0,0-6.31,2.56A11.43,11.43,0,0,0,931,104.7V234.75c0,8.76,6.2,19.45,13.85,23.86l113.44,65.5c4,2.3,7.58,2.44,10.1.8A7.87,7.87,0,0,0,1071.6,320.43Z" transform="translate(-1.35)"/><path class="cls-14" d="M1072.17,186.19c0-8.77-6.19-19.45-13.84-23.87L944.89,96.83c-7.65-4.42-13.85-.89-13.85,7.87v26.94l141.13,81.49Z" transform="translate(-1.35)"/><path class="cls-24" d="M964,206.87c-.6-3.41.22-7.18,2.46-11.39a22.64,22.64,0,0,1,5.23-6.76,15,15,0,0,1,6.49-3.37,13.35,13.35,0,0,1,7.06.3,11.34,11.34,0,0,1,5.77,3.9,11,11,0,0,1,2.17,7,20.42,20.42,0,0,1-2.66,9.23c-2.6,4.95-5.93,8.21-9.87,9.74a12.26,12.26,0,0,1-10.88-.68A10.91,10.91,0,0,1,964,206.87Zm54.46-9.72,18.43,5.9-74,40.73-9.58-7.65Zm-41.56,9a13.83,13.83,0,0,0,3.51-4.7,12.71,12.71,0,0,0,1.84-5.4c0-1.25-.44-2-1.28-2.34a2.93,2.93,0,0,0-2.84.74,13.93,13.93,0,0,0-3.38,4.58,12.86,12.86,0,0,0-1.83,5.25,2.41,2.41,0,0,0,1.15,2.46A2.73,2.73,0,0,0,976.86,206.16Zm7.37,49.27c-1.14-5.2-.28-10.41,2.53-15.76a21.51,21.51,0,0,1,6.85-8.09,16.07,16.07,0,0,1,9-2.82,22,22,0,0,1,10.4,2.68,25.63,25.63,0,0,1,9.12,7.68,21.42,21.42,0,0,1,4.15,11.33,24.45,24.45,0,0,1-3,13.11c-3.42,6.61-8.13,10.33-13.94,11.13-5.57.76-11-1.07-16.19-5.26A24.35,24.35,0,0,1,984.23,255.43Zm18.6,3.59q2.31-1.17,4.71-5.78c1.6-3.06,2.32-5.54,2.17-7.41a4.66,4.66,0,0,0-2.14-3.92,3.92,3.92,0,0,0-4.11.14q-2.21,1.23-4.48,5.6c-1.53,2.92-2.25,5.29-2.17,7.13a5,5,0,0,0,1.92,4.08A3.7,3.7,0,0,0,1002.83,259Z" transform="translate(-1.35)"/><polygon class="cls-22" points="908.73 515.31 957.61 486.94 1321.33 694.5 1272.43 723.75 908.73 515.31"/><polygon class="cls-22" points="834.1 556.29 882.98 527.93 1246.7 735.49 1197.79 764.74 834.1 556.29"/><polygon class="cls-22" points="683.71 653.08 732.58 624.72 1096.3 832.28 1047.4 861.52 683.71 653.08"/><polygon class="cls-17" points="794.87 619.6 832.21 593.33 1125.25 761.96 1087.92 789 794.87 619.6"/><path class="cls-24" d="M967.39,680.41l4.75,3.18-29.82,4.66-3.89-3.71Zm-20.29-3.9a4.18,4.18,0,0,1,2.25-3,7.72,7.72,0,0,1,2.8-1.13,7.32,7.32,0,0,1,2.8,0,7.52,7.52,0,0,1,2.56,1.08,5,5,0,0,1,1.71,1.8,2.73,2.73,0,0,1,.21,2.13,4.63,4.63,0,0,1-1.66,2.18,7.14,7.14,0,0,1-4.57,1.62,7,7,0,0,1-4.43-1.53A3.64,3.64,0,0,1,947.1,676.51Zm5.48,1.54a4.47,4.47,0,0,0,1.8-.88,3,3,0,0,0,1.17-1.26.67.67,0,0,0-.27-.81,1.52,1.52,0,0,0-1.15-.19,4.65,4.65,0,0,0-1.74.82,3.18,3.18,0,0,0-1.23,1.25.68.68,0,0,0,.23.87A1.46,1.46,0,0,0,952.58,678.05ZM950.81,694a6.58,6.58,0,0,1,2.58-4.84,8.31,8.31,0,0,1,3.38-1.84,7.15,7.15,0,0,1,3.47,0,8.88,8.88,0,0,1,3.29,1.62,8.2,8.2,0,0,1,2.37,2.8,5.71,5.71,0,0,1,.56,3.42,7.24,7.24,0,0,1-1.81,3.63,7.52,7.52,0,0,1-5.64,2.84,8.08,8.08,0,0,1-5.82-2.42A6.82,6.82,0,0,1,950.81,694Zm7.07,2.35a5.06,5.06,0,0,0,2.18-1.49,4.32,4.32,0,0,0,1.32-2.07,1.28,1.28,0,0,0-.44-1.29,1.6,1.6,0,0,0-1.44-.26,4.91,4.91,0,0,0-2.1,1.35,4.64,4.64,0,0,0-1.43,2.06,1.38,1.38,0,0,0,.38,1.41A1.6,1.6,0,0,0,957.88,696.34Z" transform="translate(-1.35)"/><rect class="cls-6" x="458.65" y="40" width="1001.03" height="1000.43"/></svg>